<svg width="12" height="11" viewBox="0 0 12 11" fill="none" xmlns="http://www.w3.org/2000/svg">
<path d="M11.8867 5.27806L6.49401 0.444646L6.19473 0.168883C6.08182 0.0647996 5.91808 0.0647996 5.8052 0.168883L4.24907 1.6028V0.996529C4.24907 0.809679 4.11251 0.658185 3.94417 0.658185H2.78169C2.61332 0.658185 2.47679 0.809708 2.47679 0.996529V3.22998L0.112149 5.37063C-0.0182824 5.48875 -0.0378136 5.70185 0.0686717 5.84666C0.128978 5.92871 0.216654 5.97114 0.30508 5.97114C0.37285 5.97114 0.441049 5.94617 0.497796 5.89499L1.42023 5.06001V10.6615C1.42023 10.8483 1.55674 10.9998 1.72513 10.9998H4.98361C5.15203 10.9998 5.28856 10.8483 5.28856 10.6615V8.03638H6.7114V10.6615C6.7114 10.8483 6.84795 10.9998 7.01635 10.9998H10.2748C10.4432 10.9998 10.5798 10.8483 10.5798 10.6615V4.97668L11.5034 5.80447C11.5598 5.855 11.6276 5.87964 11.6949 5.87964C11.7837 5.87964 11.8721 5.83668 11.9322 5.75392C12.0381 5.60851 12.0177 5.39547 11.8867 5.27806ZM3.08664 1.33487H3.63919V2.14129L3.08664 2.63754V1.33487ZM9.96992 4.52713V10.3231H7.32133V7.69795C7.32133 7.5111 7.18477 7.35963 7.0164 7.35963H4.98363C4.81521 7.35963 4.67873 7.51116 4.67873 7.69795V10.3231H2.03011V4.52713L3.2156 3.4347C3.2156 3.4347 5.99139 0.91103 6.0091 0.877424L9.96992 4.52713Z" fill="#161616"/>
</svg>
