<svg width="15" height="20" fill="none" xmlns="http://www.w3.org/2000/svg"><path d="M7.357 0C3.294.004.002 3.396 0 7.58c0 4.07 6.785 11.959 7.073 12.29a.371.371 0 00.564 0c.288-.335 7.074-8.22 7.074-12.29C14.707 3.398 11.418.006 7.356 0zm0 19.016c-1.295-1.56-6.6-8.106-6.6-11.44C.757 3.823 3.712.78 7.357.78c3.645 0 6.6 3.043 6.6 6.796 0 3.334-5.305 9.888-6.6 11.44z" fill="#161616"/><path d="M7.213 3.801c-2.202.002-3.985 1.843-3.983 4.11.002 2.268 1.789 4.105 3.99 4.102 2.202-.002 3.984-1.84 3.984-4.106-.004-2.267-1.789-4.104-3.99-4.106zm0 7.437c-1.783 0-3.23-1.49-3.23-3.327s1.447-3.326 3.23-3.326c1.784 0 3.23 1.49 3.23 3.326-.002 1.836-1.447 3.324-3.23 3.327z" fill="#161616"/></svg>