<svg width="12" height="11" fill="none" xmlns="http://www.w3.org/2000/svg"><path d="M11.887 5.278L6.494.445l-.3-.276a.282.282 0 00-.389 0L4.25 1.603V.997c0-.187-.136-.339-.305-.339H2.782c-.169 0-.305.152-.305.339V3.23L.112 5.37a.364.364 0 00-.043.477c.06.082.148.124.236.124a.287.287 0 00.193-.076l.922-.835v5.602c0 .186.137.338.305.338h3.259c.168 0 .305-.152.305-.338V8.036H6.71v2.626c0 .186.137.338.305.338h3.259c.168 0 .305-.152.305-.338V4.977l.923.827a.287.287 0 00.192.076.294.294 0 00.237-.126.364.364 0 00-.045-.476zm-8.8-3.943h.552v.806l-.552.497V1.335zM9.97 4.527v5.796H7.32V7.698c0-.187-.136-.338-.305-.338H4.984c-.169 0-.305.151-.305.338v2.625H2.03V4.527l1.186-1.092S5.99.91 6.009.877l3.96 3.65z" fill="#161616"/></svg>