<svg width="24" height="24" fill="none" xmlns="http://www.w3.org/2000/svg"><path d="M21.392 14.118v7.058c0 1.617-1.1 2.719-2.714 2.719h-3.555c-.572 0-.838-.27-.838-.85V17.69c0-.843-.473-1.312-1.32-1.315-.67 0-1.34-.003-2.01 0-.787.003-1.27.484-1.271 1.266a2212.71 2212.71 0 000 5.38c0 .611-.258.872-.863.872H5.266c-1.582 0-2.687-1.108-2.689-2.695-.002-2.253-.002-4.506 0-6.76v-.319h-.304c-.961-.004-1.764-.512-2.096-1.366-.354-.912-.174-1.734.512-2.429C2.16 8.839 3.642 7.366 5.12 5.889 6.852 4.158 8.61 2.452 10.303.685c.876-.914 2.467-.91 3.358-.006a829.342 829.342 0 009.604 9.614c.998.987.866 2.82-.387 3.522a2.22 2.22 0 01-1.068.303h-.418zm-5.704 8.371h2.962c.88 0 1.338-.46 1.338-1.341v-7.625c0-.528.281-.806.81-.808.328 0 .656.004.984-.003a.777.777 0 00.74-.574c.116-.392-.072-.668-.335-.931a7986.86 7986.86 0 01-9.513-9.51c-.486-.486-.895-.484-1.385.006l-8.47 8.47c-.386.386-.774.77-1.157 1.158-.255.259-.328.567-.183.902.14.323.405.482.76.481h.797c.709 0 .944.234.944.932 0 2.504.017 5.007-.01 7.51-.008.852.61 1.366 1.332 1.34.903-.03 1.809-.007 2.713-.007h.265v-.309c0-1.582-.013-3.165.01-4.748.019-1.245 1.019-2.34 2.262-2.423.954-.064 1.916-.013 2.874-.01.078.003.155.016.23.036 1.219.278 2.023 1.278 2.03 2.545.01 1.536 0 3.072 0 4.609.002.09.002.182.002.3z" fill="#161616"/></svg>