<svg width="13" height="12" fill="none" xmlns="http://www.w3.org/2000/svg"><path d="M11.237.665H1.565C.702.665 0 1.423 0 2.355v7.14c0 .932.702 1.69 1.565 1.69h9.67c.863 0 1.565-.758 1.565-1.69V2.357c.003-.932-.7-1.693-1.563-1.693zm.85 8.83c0 .506-.38.917-.85.917H1.565c-.469 0-.85-.412-.85-.918V2.358c0-.506.381-.918.85-.918h9.67c.469 0 .85.412.85.918v7.136h.003z" fill="#161616"/><path d="M8.073 5.83l3.13-3.031a.41.41 0 00.027-.546.341.341 0 00-.506-.029L6.407 6.408l-.843-.812c-.002-.003-.005-.006-.005-.008a.543.543 0 00-.058-.055L2.074 2.221a.339.339 0 00-.506.032.407.407 0 00.029.546l3.168 3.057-3.155 3.19a.41.41 0 00-.016.546c.072.08.167.123.263.123a.344.344 0 00.243-.103l3.202-3.235.869.838a.342.342 0 00.238.097.341.341 0 00.239-.1l.892-.864 3.184 3.267a.342.342 0 00.505-.015.41.41 0 00-.013-.546L8.073 5.831z" fill="#161616"/></svg>