<svg width="147" height="93" fill="none" xmlns="http://www.w3.org/2000/svg"><rect x="1" y="1" width="145" height="91" rx="12" fill="#fff" stroke="#000" stroke-width="2"/><g clip-path="url(#clip0_10_4)" fill="#000"><path d="M71.922 10H75.1c.156.052.315.094.477.125 6.465.836 11.313 4.116 14.444 9.806 1.926 3.468 2.727 7.236 1.957 11.21-.227 1.166-.63 2.298-.963 3.47.11.044.193.082.285.11 4.717 1.576 9.432 3.15 14.146 4.726 1.336.447 1.541.75 1.541 2.133 0 13.456.004 26.911.013 40.366 0 .896-.22 1.591-1.007 2.054h-.867a3.913 3.913 0 00-.385-.177c-6.629-2.216-13.261-4.426-19.897-6.629a2.237 2.237 0 00-1.301 0 2345.204 2345.204 0 00-17.295 5.742c-.963.324-1.912.707-2.866 1.064h-1.155a6.814 6.814 0 00-.81-.385c-6.675-2.233-13.352-4.46-20.028-6.683-1.121-.374-1.387-.747-1.389-1.961V34.377c0-1.642.809-2.23 2.357-1.713l13.008 4.312c.628.209 1.257.409 1.926.625a1.196 1.196 0 00-.03-.22c-.136-.308-.282-.61-.415-.92-1.31-3.047-2.338-6.117-2.01-9.55.679-7.117 5.794-13.682 12.616-15.88 1.442-.453 2.983-.692 4.47-1.031zM42.937 35.905c-.014.18-.03.299-.03.416 0 12.498-.006 24.996-.016 37.493 0 .507.235.644.632.771 5.744 1.91 11.487 3.826 17.228 5.746.193.064.386.095.626.15v-.932c0-10.282-.061-20.566.045-30.846.025-2.493-.276-4.755-1.836-6.734-.277-.35-.643-.727-1.045-.863-4.96-1.688-9.932-3.332-14.901-4.987-.224-.077-.45-.139-.703-.214zm61.147 44.594c.014-.175.029-.293.029-.412 0-12.497.005-24.994.015-37.49 0-.51-.24-.653-.635-.784-2.735-.904-5.468-1.821-8.202-2.73-1.798-.598-3.59-1.191-5.376-1.781a1.256 1.256 0 00-.175.193c-1.308 2.404-2.621 4.805-3.91 7.22a1.96 1.96 0 00-.18.892c-.008 9.366-.015 18.732-.02 28.1 0 .524.162.738.651.9a3641.13 3641.13 0 0117.1 5.682c.224.073.451.135.703.21zM73.476 58.245c1.446-2.16 2.806-4.168 4.142-6.189 3.723-5.632 7.479-11.245 10.208-17.456 1.142-2.593 1.849-5.245 1.388-8.127-1.373-8.575-8.93-14.365-17.543-13.469-9.747 1.016-17.188 11.775-12.599 21.467a97.754 97.754 0 005.85 10.675c2.78 4.355 5.648 8.654 8.554 13.1zm9.267-8.326l-.132-.046c-.135.193-.276.385-.405.578-2.44 3.688-4.885 7.376-7.336 11.062-.785 1.183-1.937 1.183-2.717 0l-7.376-11.12c-.124-.192-.266-.356-.474-.632v30.742c.264-.08.493-.141.716-.216 5.608-1.867 11.213-3.75 16.83-5.588.675-.22.92-.488.915-1.233-.034-7.49-.02-14.98-.02-22.47V49.92z"/><path d="M73.497 38.786a10.248 10.248 0 01-9.464-6.353 10.261 10.261 0 012.252-11.178 10.25 10.25 0 0117.479 7.318 10.254 10.254 0 01-3.022 7.231 10.243 10.243 0 01-7.245 2.982zm-.023-2.89a7.36 7.36 0 006.826-4.523 7.37 7.37 0 00-1.57-8.039 7.361 7.361 0 00-12.584 5.189 7.362 7.362 0 007.328 7.366v.006z"/></g><defs><clipPath id="clip0_10_4"><path fill="#fff" transform="translate(40 10)" d="M0 0h67v74H0z"/></clipPath></defs></svg>