<svg width="17" height="17" fill="none" xmlns="http://www.w3.org/2000/svg"><g clip-path="url(#clip0_0_314)"><path d="M15.636 11.159a9.65 9.65 0 01-3.031-.483c-.483-.165-1.033-.037-1.348.284l-1.911 1.443c-2.217-1.184-3.583-2.549-4.75-4.749l1.4-1.861c.365-.364.495-.895.339-1.393a9.667 9.667 0 01-.485-3.036C5.85.612 5.238 0 4.486 0H1.364C.612 0 0 .612 0 1.364 0 9.986 7.014 17 15.636 17c.752 0 1.364-.612 1.364-1.364v-3.113c0-.752-.612-1.364-1.364-1.364zm.42 4.477a.42.42 0 01-.42.42C7.535 16.056.944 9.466.944 1.364a.42.42 0 01.42-.42h3.122a.42.42 0 01.42.42c0 1.142.18 2.263.53 3.326.049.156.01.319-.15.484l-1.623 2.15a.473.473 0 00-.044.498c1.325 2.604 2.935 4.214 5.558 5.558a.47.47 0 00.5-.043l2.199-1.666a.417.417 0 01.428-.1c1.069.353 2.19.532 3.332.532a.42.42 0 01.42.42v3.113z" fill="#161616"/></g><defs><clipPath id="clip0_0_314"><path fill="#fff" d="M0 0h17v17H0z"/></clipPath></defs></svg>