<svg width="25" height="25" fill="none" xmlns="http://www.w3.org/2000/svg"><path d="M12.5 25C19.404 25 25 19.404 25 12.5S19.404 0 12.5 0 0 5.596 0 12.5 5.596 25 12.5 25z" fill="#7AA5DA"/><path d="M18.735 6.52a.673.673 0 01.905.765l-2.235 10.682a.704.704 0 01-1.106.424l-3.373-2.477-1.72 1.756a.571.571 0 01-.953-.228l-1.24-3.938-3.326-.983a.477.477 0 01-.04-.902l13.088-5.1zm-1.64 2.37c.146-.129-.024-.356-.189-.253l-7.178 4.452a.326.326 0 00-.14.374l.98 4.299c.018.066.113.056.121-.012l.219-3.276a.324.324 0 01.108-.209l6.079-5.375z" fill="#fff"/><path d="M16.908 8.636c.165-.102.334.125.188.254l-6.079 5.375a.324.324 0 00-.107.209l-.22 3.276c-.008.068-.102.078-.121.012l-.98-4.299a.326.326 0 01.14-.374l7.179-4.453z" fill="#9EC2E5"/><path d="M10.602 17.806a.561.561 0 01-.349-.364l-1.24-3.939-3.326-.982a.477.477 0 01-.04-.902l13.088-5.1a.671.671 0 01.707.14l-8.88 7.247v.318l-.048-.036.049 1.999v1.602a.313.313 0 00.04.016v.001z" fill="#fff"/><path d="M11.162 17.711a.596.596 0 01-.046.036v-.001a.585.585 0 00.046-.035z" fill="#DADDE0"/><path d="M11.117 17.746v.002s0-.002-.001 0l.001-.002zm-.101.054zm-.274.038z" fill="#DADDE0"/><path d="M10.802 17.842zm-.061-.004z" fill="#fff"/><path d="M10.741 17.838a.348.348 0 01-.04-.005c-.006 0-.012-.002-.017-.003a.615.615 0 00.057.008zm-.121-.027z" fill="#DADDE0"/><path d="M10.654 17.823zm-.034-.011a.219.219 0 01-.014-.004l.014.004z" fill="#fff"/><path d="M10.627 17.814a.076.076 0 01-.02-.006c0 .002-.003 0-.004 0v-.003c.008.005.016.007.024.01z" fill="#DADDE0"/><path d="M10.563 16.187l.04 1.618a.319.319 0 01-.04-.015v-1.603z" fill="#D1D1D1"/><path d="M10.563 14.225v1.963l-.048-1.999.048.036z" fill="#DADDE0"/><path d="M17.096 8.89l-6.079 5.375a.324.324 0 00-.107.209l-.219 3.276c-.008.069-.103.078-.123.012l-.978-4.299a.326.326 0 01.14-.374l7.178-4.452c.165-.103.334.124.188.253z" fill="#ADBCC9"/></svg>