<svg width="25" height="25" fill="none" xmlns="http://www.w3.org/2000/svg"><path d="M12.5 25C19.404 25 25 19.404 25 12.5S19.404 0 12.5 0 0 5.596 0 12.5 5.596 25 12.5 25z" fill="#6F3FAA"/><path d="M19.113 8.785l-.004-.016c-.334-1.35-1.84-2.8-3.223-3.1l-.015-.004a17.908 17.908 0 00-6.74 0l-.017.003c-1.382.302-2.888 1.75-3.223 3.1l-.003.017a13.194 13.194 0 000 5.684l.003.016c.32 1.293 1.714 2.675 3.046 3.056v1.507c0 .545.664.813 1.042.42l1.527-1.588a17.828 17.828 0 004.365-.29l.015-.004c1.383-.301 2.889-1.75 3.223-3.1l.004-.017a13.194 13.194 0 000-5.684zm-1.209 5.41c-.223.881-1.366 1.977-2.274 2.179a16.72 16.72 0 01-3.586.29.085.085 0 00-.063.025l-1.115 1.145L9.68 19.05a.139.139 0 01-.239-.096v-2.497a.086.086 0 00-.07-.084c-.909-.202-2.052-1.298-2.275-2.178a11.972 11.972 0 010-5.137c.223-.881 1.366-1.976 2.274-2.179a16.679 16.679 0 016.26 0c.909.203 2.051 1.298 2.274 2.179a11.958 11.958 0 010 5.136z" fill="#fff"/><path d="M14.476 15.348c-.14-.042-.273-.07-.396-.122-1.281-.531-2.46-1.217-3.393-2.268-.531-.597-.947-1.272-1.298-1.986-.167-.338-.307-.69-.45-1.04-.13-.319.061-.648.264-.888.19-.226.434-.398.699-.525.206-.1.41-.042.56.133.327.378.626.776.869 1.215.15.27.108.6-.162.783-.066.045-.126.097-.187.148a.613.613 0 00-.141.148.408.408 0 00-.027.358c.333.916.895 1.628 1.817 2.012.148.062.296.133.466.113.285-.033.377-.345.576-.508a.543.543 0 01.654-.03c.21.134.414.277.617.42.198.143.396.28.58.442.176.156.236.36.137.57-.182.386-.446.707-.827.911-.108.058-.236.077-.358.114-.14-.042.121-.037 0 0zm-1.972-7.271c1.675.047 3.05 1.159 3.346 2.815.05.282.068.57.09.857.01.12-.059.235-.189.237-.134.001-.194-.111-.203-.231-.017-.239-.03-.478-.062-.715a2.993 2.993 0 00-2.41-2.502c-.188-.033-.379-.042-.568-.062-.12-.012-.277-.02-.303-.168-.023-.125.083-.224.201-.23.033-.003.065-.001.098 0 1.675.046-.033-.001 0 0z" fill="#fff"/><path d="M15.05 11.378c-.003.02-.005.07-.017.116-.044.168-.3.19-.358.02a.504.504 0 01-.02-.162c0-.355-.078-.71-.257-1.018a1.895 1.895 0 00-.794-.746 2.283 2.283 0 00-.634-.194c-.095-.016-.192-.025-.288-.039-.116-.016-.178-.09-.172-.205.005-.107.083-.184.2-.177.385.021.756.105 1.098.286.695.368 1.092.949 1.208 1.724.005.036.014.07.016.106.007.087.01.174.018.289-.003.02-.007-.115 0 0z" fill="#fff"/><path d="M14.007 11.337c-.14.003-.215-.075-.23-.203-.01-.09-.017-.18-.039-.268a.753.753 0 00-.277-.436.727.727 0 00-.227-.11c-.103-.029-.21-.02-.312-.046-.111-.027-.173-.117-.155-.222a.201.201 0 01.212-.162c.65.047 1.114.383 1.18 1.148.005.054.01.11-.002.162-.02.089-.086.133-.15.137-.14.003.064-.004 0 0zm.469 4.011c.121-.038-.14-.043 0 0zm-1.969-7.27h-.004.004zm-.003-.001h.005c.093.004 1.605.046-.005 0zm2.546 3.301c-.007-.115-.003.02 0 0z" fill="#fff"/><path d="M14.008 11.338l.006-.002h-.024l.018.002zm0 0l-.018-.002c-.03.002-.062.004.018.002zm.007-.002l-.007.002c.017-.002.015-.002.007-.002z" fill="#fff"/><path d="M13.712 10.133l-.3.265a.753.753 0 01.326.468c.022.087.03.178.04.268.014.122.084.198.212.202h.024a.166.166 0 00.144-.136.55.55 0 00.001-.162c-.037-.428-.199-.721-.447-.905z" fill="#D1D1D1"/></svg>