<svg width="25" height="25" fill="none" xmlns="http://www.w3.org/2000/svg"><path d="M12.5 25C19.404 25 25 19.404 25 12.5S19.404 0 12.5 0 0 5.596 0 12.5 5.596 25 12.5 25z" fill="#75B73B"/><path d="M12.15 5.295c-3.81.181-6.817 3.354-6.805 7.168a7.123 7.123 0 00.779 3.228l-.76 3.687c-.041.2.139.374.337.327l3.613-.856a7.12 7.12 0 003.074.746c3.894.06 7.141-3.032 7.263-6.925a7.155 7.155 0 00-7.501-7.375zm4.311 11.108a5.566 5.566 0 01-3.961 1.64 5.543 5.543 0 01-2.494-.584l-.503-.25-2.215.524.466-2.263-.248-.486a5.539 5.539 0 01-.609-2.543c0-1.496.583-2.903 1.641-3.961A5.612 5.612 0 0112.5 6.839c1.496 0 2.903.583 3.961 1.64a5.566 5.566 0 011.64 3.962 5.612 5.612 0 01-1.64 3.962z" fill="#fff"/><path d="M15.973 13.993l-1.386-.398a.517.517 0 00-.51.135l-.34.345a.505.505 0 01-.549.116c-.655-.265-2.034-1.492-2.386-2.105a.505.505 0 01.04-.56l.295-.382a.517.517 0 00.064-.525L10.618 9.3a.517.517 0 00-.807-.184c-.387.327-.846.824-.901 1.375-.099.97.318 2.194 1.892 3.664 1.82 1.698 3.276 1.923 4.225 1.693.538-.13.968-.653 1.24-1.08a.517.517 0 00-.294-.775z" fill="#fff"/></svg>